<svg width="42" height="42" viewBox="0 0 42 42" fill="none" xmlns="http://www.w3.org/2000/svg">
<g id="bier 1" clip-path="url(#clip0_8_17)">
<g id="beer icon">
<path id="Vector" d="M12.9783 31.6777C12.7644 31.6777 12.6218 31.6777 12.408 31.6064L7.0613 29.8954C6.63357 29.7529 5.70681 29.2538 6.13454 27.8281L8.84353 19.3447L17.0418 21.9824L14.3328 30.3945C14.1902 31.1074 13.6199 31.6064 12.9783 31.6777Z" fill="#F4A23F"/>
<path id="Vector_2" d="M17.084 22.0139L18.0226 19.0955L9.81046 16.4542L8.8718 19.3725L17.084 22.0139Z" fill="#FBCF4C"/>
<path id="Vector_3" d="M14.8318 21.2695L12.1941 29.539C12.0515 30.2519 11.4812 30.7509 10.7683 30.7509C10.5544 30.7509 10.4119 30.7509 10.198 30.6796L6.41968 29.4677C6.63354 29.6816 6.84741 29.7529 7.06128 29.8954L12.408 31.6064C12.5505 31.6777 12.7644 31.6777 12.9783 31.6777C13.6912 31.6064 14.2615 31.1074 14.4041 30.4658L17.113 22.0536L14.8318 21.2695Z" fill="#E28539"/>
<path id="Vector_4" d="M15.7585 18.4179L14.9031 21.1269L8.91479 19.2021L8.84351 19.3447L17.113 21.9824L18.0398 19.1308L15.7585 18.4179Z" fill="#EDB248"/>
<path id="Vector_5" d="M14.9743 35.6698C14.8318 35.6698 14.6179 35.6698 14.4753 35.5986L3.06908 31.8915C2.21361 31.6064 1.71459 30.6796 1.99974 29.8241C2.21361 29.1825 2.85521 28.6835 3.49681 28.6835L7.63158 15.7802L9.77025 16.4931L6.13451 27.7568C5.70677 29.1825 6.63353 29.6816 7.06127 29.8241L12.4079 31.5351C12.5505 31.6064 12.7644 31.6064 12.9783 31.6064C13.6911 31.5351 14.2615 31.0361 14.404 30.3945L18.0398 19.0595L20.1785 19.7724L15.9724 32.6757C16.5427 33.1034 16.7566 33.8163 16.5427 34.4579C16.3288 35.1708 15.6872 35.6698 14.9743 35.6698Z" fill="white"/>
<path id="Vector_6" d="M13.9763 31.1786L12.6931 35.0282L14.4753 35.5986C14.6179 35.6698 14.8318 35.6698 14.9744 35.6698C15.6873 35.6698 16.3289 35.2421 16.5427 34.5292C16.7566 33.8876 16.5427 33.1747 15.9724 32.747L20.1072 19.8437L17.9685 19.1308L14.3328 30.4658C14.2615 30.6796 14.1902 30.9648 13.9763 31.1786Z" fill="#F7EEBA"/>
<path id="Vector_7" d="M19.1091 19.3447C18.8953 19.3447 18.6814 19.3447 18.4675 19.2734L9.5564 16.4218C9.12866 16.2792 8.70093 15.9941 8.41577 15.6376C8.2019 15.2812 8.13062 14.9247 8.2019 14.497C8.41577 13.9267 9.05737 13.499 9.69897 13.5702C9.91284 13.5702 10.198 13.6415 10.4119 13.7128H10.4832C10.9109 12.7148 11.9089 12.1445 12.9783 12.2158C13.406 12.2158 13.7625 12.287 14.1189 12.4296C15.0457 12.7148 15.8298 13.3564 16.2576 14.2119C16.4001 14.2119 16.5427 14.1406 16.6853 14.2119C16.9705 14.2119 17.2556 14.2831 17.5408 14.3544C18.1111 14.497 18.5388 14.8535 18.8953 15.3525C19.1804 15.7089 19.2517 16.2079 19.1804 16.6357V16.707V16.6357L19.2517 16.707C19.7507 16.8495 20.1785 17.206 20.3923 17.6337C20.5349 17.9189 20.6062 18.204 20.4636 18.4892C20.2498 19.0595 19.6794 19.3447 19.1091 19.3447Z" fill="white"/>
<path id="Vector_8" d="M20.3923 17.6337C20.1072 17.206 19.7507 16.8495 19.2517 16.707L19.1804 16.6357V16.5644C19.323 16.1367 19.1804 15.6376 18.8953 15.2812C18.5388 14.8535 18.1111 14.497 17.5408 14.2831C17.2556 14.2119 16.9705 14.1406 16.6853 14.1406C16.5427 14.1406 16.4001 14.1406 16.2576 14.1406C15.8298 13.2851 15.0457 12.5722 14.1189 12.3583C13.7625 12.2158 13.3347 12.1445 12.9783 12.1445C12.5505 12.1445 12.1228 12.2158 11.6951 12.4296C11.8376 12.4296 11.9089 12.5009 12.0515 12.5009C12.9783 12.7861 13.7625 13.4277 14.1902 14.2831C14.3328 14.2831 14.4753 14.2119 14.6179 14.2831C14.9031 14.2831 15.1882 14.3544 15.4734 14.4257C16.0437 14.5683 16.4714 14.9247 16.8279 15.4238C17.113 15.7802 17.1843 16.2792 17.113 16.707V16.7783V16.8495L17.1843 16.9208C17.6834 17.0634 18.1111 17.4199 18.325 17.8476C18.4675 18.1328 18.5388 18.4179 18.3962 18.7031C18.325 18.8456 18.2537 19.0595 18.1111 19.1308L18.4675 19.2734C18.6814 19.3447 18.8953 19.3447 19.1091 19.3447C19.6794 19.416 20.2498 19.0595 20.4636 18.4892C20.5349 18.204 20.5349 17.9189 20.3923 17.6337Z" fill="#F7EEBA"/>
<path id="Vector_9" d="M26.9509 35.6699C26.238 35.6699 25.5964 35.2421 25.3826 34.5292C25.1687 33.8876 25.3826 33.1747 25.9529 32.747L21.8181 19.8437L23.9568 19.1308L27.5925 30.4658C27.7351 31.1787 28.3054 31.6777 29.0183 31.6777C29.2322 31.6777 29.3748 31.6777 29.5886 31.6064L34.9353 29.8955C35.363 29.7529 36.2898 29.2538 35.8621 27.8281L33.0818 19.4872L33.0105 19.416V19.2021L32.0837 16.4218L34.2224 15.7089L38.4285 28.6835C39.3552 28.6835 40.0681 29.4677 39.9968 30.3945C39.9968 31.1074 39.4978 31.749 38.8562 31.8915L27.45 35.5986C27.3074 35.6699 27.0935 35.6699 26.9509 35.6699Z" fill="white"/>
<path id="Vector_10" d="M39.9255 29.8242C39.7117 29.1826 39.1414 28.6835 38.4285 28.6835L34.2937 15.7802L32.155 16.4931L33.0818 19.2734V19.3447V19.4872L33.1531 19.5585L35.7908 27.8281C35.8621 28.0419 35.9333 28.3271 35.9333 28.541L37.1453 32.4619L38.9275 31.8915C39.783 31.6064 40.2107 30.6796 39.9255 29.8242Z" fill="#F7EEBA"/>
<path id="Vector_11" d="M24.8464 22.0143L33.0575 19.3713L32.1182 16.4534L23.9072 19.0964L24.8464 22.0143Z" fill="#FBCF4C"/>
<path id="Vector_12" d="M30.0164 17.206L30.9431 20.0576L33.0818 19.3447L32.155 16.4931L30.0164 17.206Z" fill="#EDB248"/>
<path id="Vector_13" d="M22.8162 19.3447C22.2459 19.416 21.6755 19.0595 21.4617 18.4892C21.3904 18.204 21.3904 17.9189 21.533 17.6337C21.7468 17.206 22.1746 16.8496 22.6736 16.707H22.7449H22.8162V16.6357C22.6736 16.1367 22.7449 15.6376 23.03 15.2812C23.3865 14.8535 23.8142 14.497 24.3845 14.2832C24.6697 14.2119 24.9548 14.1406 25.24 14.1406C25.3826 14.1406 25.5252 14.1406 25.6677 14.1406C26.0955 13.2851 26.8797 12.5722 27.8064 12.3583C28.1629 12.2158 28.5906 12.1445 28.947 12.1445C29.9451 12.0732 30.9431 12.6435 31.3709 13.5703H31.5134C31.7273 13.499 32.0125 13.4277 32.2263 13.4277C32.8679 13.3564 33.5095 13.7128 33.7234 14.3544C33.866 14.7109 33.7947 15.1386 33.5095 15.4951C33.2244 15.9228 32.7966 16.208 32.3689 16.2792L23.4578 19.1308C23.2439 19.2734 23.03 19.3447 22.8162 19.3447Z" fill="white"/>
<path id="Vector_14" d="M33.7234 14.4257C33.4382 13.8554 32.8679 13.4277 32.2263 13.499C32.0125 13.499 31.7273 13.5703 31.5134 13.6416H31.3709C30.9431 12.7148 29.9451 12.1445 28.947 12.2158C28.5193 12.2158 28.1628 12.2871 27.8064 12.4296C26.8796 12.7148 26.0955 13.3564 25.6677 14.2119C25.5251 14.2119 25.3826 14.1406 25.24 14.2119C24.9548 14.2119 24.6697 14.2832 24.3845 14.3544C23.8142 14.497 23.3865 14.8535 23.03 15.3525C22.8875 15.5664 22.7449 15.8515 22.7449 16.0654C22.8875 15.9941 22.9587 15.9941 23.1013 15.9228C23.3865 15.8515 23.6716 15.7802 23.9568 15.7802C24.0994 15.7802 24.2419 15.7802 24.3845 15.7802C24.8123 14.9248 25.5964 14.2119 26.5232 13.998C26.8796 13.8554 27.3074 13.7841 27.6638 13.7841C28.6619 13.7128 29.6599 14.2832 30.0876 15.2099H30.2302C30.4441 15.1386 30.7292 15.0673 30.9431 15.0673C31.5847 14.996 32.2263 15.3525 32.4402 15.9941C32.4402 16.1367 32.5115 16.208 32.5115 16.3505C32.9392 16.208 33.2957 15.9228 33.5095 15.5664C33.7947 15.2099 33.866 14.8535 33.7234 14.4257Z" fill="#F7EEBA"/>
<path id="Vector_15" d="M28.947 31.6777C28.2341 31.6064 27.6638 31.1074 27.5212 30.4658L24.8123 22.0537L33.0818 19.3447L35.7908 27.7568C36.2898 29.1826 35.2917 29.6816 34.864 29.8242L29.5173 31.5351C29.3035 31.6064 29.1609 31.6777 28.947 31.6777Z" fill="#F4A23F"/>
<path id="Vector_16" d="M35.7908 27.7568L33.0818 19.3447L30.9431 20.0576L33.6521 28.4697C34.0798 29.8242 33.2957 30.3232 32.8679 30.4658L34.864 29.8242C35.2917 29.6816 36.2185 29.2538 35.7908 27.7568Z" fill="#E28539"/>
<path id="Vector_17" d="M40.1394 18.4892C39.9256 17.705 39.4265 16.9921 38.7136 16.5644C38.2146 16.2792 37.573 16.2792 37.0027 16.4931L35.4343 16.9921L35.0066 15.5664C34.9353 15.3525 34.7927 15.1386 34.5076 15.1386C34.5789 14.8535 34.5076 14.5683 34.4363 14.2119C34.0086 13.1425 32.8679 12.5722 31.7986 12.8574C31.157 11.9306 30.0877 11.4316 28.947 11.5029C28.448 11.5029 28.0203 11.5742 27.5213 11.7167C26.5945 12.0019 25.739 12.6435 25.24 13.499C24.8836 13.499 24.5271 13.5703 24.1707 13.6415C23.4578 13.8554 22.8875 14.2831 22.4597 14.8535C22.1746 15.2812 22.032 15.7802 22.032 16.2792C21.6043 16.4931 21.2478 16.8496 21.0339 17.2773C20.8201 16.8496 20.4636 16.4931 19.9646 16.2792C19.9646 15.7802 19.822 15.2812 19.5369 14.8535C19.1091 14.2831 18.5388 13.8554 17.8259 13.6415C17.4695 13.5703 17.1131 13.499 16.7566 13.499C16.1863 12.6435 15.4021 12.0732 14.4754 11.788C14.0476 11.6455 13.5486 11.5742 13.0496 11.5742C11.9089 11.5029 10.9109 12.0019 10.198 12.9287C10.0554 12.9287 9.91286 12.8574 9.69899 12.9287C8.77223 12.8574 7.84547 13.4277 7.48903 14.3544C7.41774 14.6396 7.34645 14.9247 7.41774 15.2812C7.20387 15.3525 6.99 15.4951 6.91871 15.7089L6.49098 17.1347L4.92262 16.6357C4.35231 16.4218 3.782 16.4931 3.21168 16.707C2.49879 17.1347 1.99977 17.8476 1.7859 18.6318L0.431409 22.7665C0.288831 23.123 0.217542 23.622 0.288831 24.121C0.288831 25.0478 0.930433 25.9033 1.85719 26.1171L3.42555 26.6162L2.92653 28.0419C1.64332 28.3984 0.930433 29.6816 1.28688 30.8935C1.50075 31.6777 2.07106 32.248 2.85524 32.5331L14.2615 36.2402C14.4754 36.3115 14.7605 36.3828 14.9744 36.3828C16.2576 36.3828 17.3269 35.3134 17.3269 34.0302C17.3269 33.4599 17.1131 32.9609 16.7566 32.5331L20.7488 20.0576C20.8201 19.8437 20.7488 19.6298 20.6775 19.4872C20.7488 19.416 20.8201 19.2734 20.8914 19.2021C20.9627 19.2734 21.0339 19.416 21.1052 19.4872C20.9627 19.6298 20.9627 19.8437 21.0339 20.0576L25.0974 32.5331C24.242 33.5312 24.3845 35.0283 25.3826 35.8124C26.0242 36.3115 26.8797 36.5253 27.5925 36.2402L38.9988 32.5331C40.2107 32.1767 40.9236 30.8222 40.5672 29.6103C40.3533 28.8261 39.7117 28.2558 38.9275 28.0419L38.4285 26.6162L39.9968 26.1171C40.8523 25.832 41.4939 25.0478 41.5652 24.121C41.5652 23.622 41.4939 23.123 41.3513 22.624L40.1394 18.4892ZM2.28492 24.7626C1.92848 24.6913 1.71461 24.4062 1.71461 24.0497C1.71461 23.6933 1.71461 23.4081 1.85719 23.0517L3.14039 18.9169C3.21168 18.4892 3.49684 18.1328 3.85328 17.8476C4.06715 17.7763 4.28102 17.7763 4.49489 17.8476L6.06325 18.3466L3.85328 25.2617L2.28492 24.7626ZM15.2595 32.5331C15.1882 32.8183 15.2595 33.1035 15.4734 33.3173C15.7586 33.5312 15.9011 33.9589 15.8298 34.3154C15.6873 34.8144 15.117 35.0996 14.6892 34.8857L3.28297 31.1787C2.78395 31.0361 2.49879 30.5371 2.64137 30.038C2.78395 29.6816 3.0691 29.3964 3.49684 29.3964C3.782 29.3964 4.06715 29.1826 4.13844 28.8974L8.13063 16.6357L8.91481 16.9208L8.20192 19.1308L5.49293 27.5429C4.99391 28.6122 5.49293 29.8955 6.56227 30.3945C6.70485 30.4658 6.77614 30.4658 6.91871 30.5371L12.2654 32.248C12.4793 32.3193 12.7644 32.3906 13.0496 32.3906C14.0476 32.3193 14.9031 31.6777 15.117 30.6796L17.8259 22.2675L18.5388 20.0576L19.323 20.2714L15.2595 32.5331ZM16.1863 22.4814L13.6912 30.1806C13.6199 30.3945 13.406 30.8935 12.9783 30.8935C12.8357 30.8935 12.7644 30.8935 12.6218 30.8222L7.27516 29.1113C6.77614 28.9687 6.63356 28.6122 6.84743 27.9706L9.34254 20.2001L16.1863 22.4814ZM9.77028 18.9169L10.2693 17.3486L15.117 18.9169L17.1131 19.5585L16.614 21.1269L9.77028 18.9169ZM18.6814 18.5605L9.77028 15.7089C9.48512 15.6376 9.19996 15.4238 8.9861 15.2099C8.84352 15.0673 8.84352 14.8535 8.84352 14.7109C8.9861 14.4257 9.34254 14.2831 9.6277 14.2831C9.77028 14.2831 9.98414 14.2831 10.1267 14.3544H10.2693C10.6257 14.497 11.0535 14.2831 11.1961 13.9267C11.1961 13.9267 11.1961 13.9267 11.1961 13.8554C11.4812 13.2138 12.1941 12.7861 12.9783 12.8574C13.3347 12.8574 13.6199 12.9287 13.905 12.9999C14.6179 13.2138 15.2595 13.7128 15.5447 14.4257C15.6873 14.7109 15.9724 14.9247 16.3289 14.8535C16.614 14.7822 16.9705 14.8535 17.2556 14.9247C17.6834 15.0673 17.9685 15.2812 18.2537 15.6376C18.3963 15.8515 18.4675 16.0654 18.4675 16.3505L18.3963 16.4218C18.2537 16.7783 18.3963 17.206 18.7527 17.3486H18.824H18.8953C19.4656 17.4912 19.7507 17.9189 19.6795 18.204C19.6082 18.4892 19.1804 18.7031 18.6814 18.5605ZM22.1033 18.2753C22.032 17.9902 22.3172 17.5624 22.8875 17.4199H22.9588C23.3152 17.3486 23.6004 16.9208 23.4578 16.5644V16.4931V16.4218C23.3865 16.208 23.4578 15.9228 23.6004 15.7089C23.8142 15.3525 24.1707 15.1386 24.5984 14.996C24.8836 14.9247 25.24 14.8535 25.5252 14.9247C25.8816 14.996 26.1668 14.7822 26.3093 14.497C26.6658 13.7841 27.2361 13.2851 27.949 13.0712C28.2341 12.9999 28.5906 12.9287 28.8757 12.9287C29.5886 12.8574 30.3015 13.2138 30.658 13.8554C30.7293 14.0693 30.8718 14.2119 31.0144 14.2831C31.2283 14.3544 31.4422 14.3544 31.5847 14.2831L31.656 14.2119C32.2263 13.998 32.8679 14.2119 32.9392 14.5683C33.0105 14.7822 32.9392 14.9247 32.7966 15.0673C32.5828 15.3525 32.3689 15.4951 32.0125 15.5664L23.1013 18.4179C22.7449 18.7031 22.2459 18.5605 22.1033 18.2753ZM32.5828 20.2714L35.0779 27.9706C35.2918 28.6122 35.1492 28.9687 34.6502 29.1113L29.3035 30.8935C29.2322 30.8935 29.0896 30.9648 28.947 30.9648C28.5193 30.9648 28.3054 30.4658 28.2341 30.2519L25.739 22.4814L32.5828 20.2714ZM25.3113 21.1269L24.8123 19.5585L26.8084 18.9169L31.656 17.3486L32.155 18.9169L25.3113 21.1269ZM39.2127 30.038C39.3552 30.5371 39.0701 31.0361 38.6423 31.2499L27.2361 34.957C26.7371 35.0996 26.2381 34.8144 26.0242 34.3867C25.8816 34.0302 26.0242 33.6025 26.3806 33.3886C26.5945 33.1747 26.7371 32.8896 26.5945 32.6044L22.6736 20.3427L23.4578 20.1288L24.1707 22.3388L26.8797 30.7509C27.0935 31.749 27.949 32.4619 28.947 32.4619C29.2322 32.4619 29.4461 32.3906 29.7312 32.3193L35.0779 30.6083C36.2185 30.3232 36.8601 29.1113 36.575 27.9706C36.575 27.8281 36.5037 27.7568 36.4324 27.6142L33.7234 19.2021L33.0105 16.9921L33.7947 16.707L37.7156 28.9687C37.7869 29.2539 38.072 29.4677 38.3572 29.4677C38.7849 29.4677 39.1414 29.6816 39.2127 30.038ZM40.2107 23.9785C40.2107 24.3349 39.9256 24.6201 39.6404 24.6914L38.072 25.2617L35.8621 18.2753L37.4304 17.7763C37.6443 17.705 37.8582 17.705 38.072 17.7763C38.4285 18.0615 38.7136 18.4179 38.7849 18.8456L40.1394 23.0517C40.2107 23.3369 40.2107 23.6933 40.2107 23.9785Z" fill="#4A2328"/>
<path id="Vector_18" d="M20.8201 12.3583C21.2478 12.3583 21.533 12.0732 21.533 11.6454V6.15619C21.533 5.72845 21.2478 5.4433 20.8201 5.4433C20.3923 5.4433 20.1072 5.72845 20.1072 6.15619V11.6454C20.1072 12.0732 20.4636 12.3583 20.8201 12.3583Z" fill="#4A2328"/>
<path id="Vector_19" d="M22.8875 12.8574C23.2439 13.0713 23.6717 12.9287 23.8142 12.5722L26.6658 7.08297C26.8084 6.72653 26.6658 6.29879 26.3094 6.15621C25.9529 6.01364 25.5965 6.15622 25.4539 6.44137L22.6023 11.9306C22.4597 12.2158 22.6023 12.6435 22.8875 12.8574Z" fill="#4A2328"/>
<path id="Vector_20" d="M17.7547 12.5722C17.8972 12.9287 18.325 13.0712 18.6814 12.9287C19.0379 12.7861 19.1804 12.3583 19.0379 12.0019C19.0379 12.0019 19.0379 11.9306 18.9666 11.9306L16.115 6.44135C15.9011 6.0849 15.4734 6.01361 15.117 6.22748C14.8318 6.44135 14.6892 6.79779 14.8318 7.08295L17.7547 12.5722Z" fill="#4A2328"/>
</g>
</g>
<defs>
<clipPath id="clip0_8_17">
<rect width="41.3043" height="41.3043" fill="white" transform="translate(0.260864 0.260864)"/>
</clipPath>
</defs>
</svg>
